<svg width="47" height="47" viewBox="0 0 47 47" fill="none" xmlns="http://www.w3.org/2000/svg">
<rect width="47" height="47" rx="18" fill="#5567F1"/>
<path d="M27.5 21.5C27.5 23.1569 26.1569 24.5 24.5 24.5C22.8431 24.5 21.5 23.1569 21.5 21.5C21.5 19.8431 22.8431 18.5 24.5 18.5C26.1569 18.5 27.5 19.8431 27.5 21.5Z" fill="white"/>
<mask id="path-3-inside-1_635_7600" fill="white">
<path d="M33.6368 21.5C34.942 21.5 36.0244 22.569 35.758 23.8466C35.3946 25.5902 34.6287 27.2366 33.5082 28.6486C31.8945 30.682 29.6405 32.1096 27.1125 32.6993C24.5845 33.289 21.9314 33.0061 19.5847 31.8966C17.2379 30.7871 15.3356 28.9163 14.187 26.5884C13.0384 24.2605 12.7112 21.6125 13.2586 19.075C13.806 16.5376 15.1957 14.2599 17.2018 12.6126C19.2079 10.9652 21.7123 10.045 24.3078 10.0016C26.1101 9.97148 27.8827 10.3654 29.4876 11.1378C30.6636 11.7039 30.8533 13.2133 30.0592 14.249C29.2651 15.2848 27.7803 15.4316 26.5355 15.0394C25.8455 14.822 25.1203 14.715 24.3868 14.7273C22.858 14.7529 21.3829 15.2949 20.2013 16.2652C19.0197 17.2355 18.2011 18.5771 17.8787 20.0717C17.5563 21.5663 17.749 23.126 18.4255 24.4971C19.102 25.8683 20.2225 26.9702 21.6048 27.6237C22.9871 28.2772 24.5498 28.4439 26.0388 28.0965C27.5278 27.7492 28.8555 26.9083 29.8059 25.7106C30.262 25.136 30.6183 24.4954 30.8656 23.8156C31.3117 22.589 32.3317 21.5 33.6368 21.5Z"/>
</mask>
<path d="M33.5082 28.6486L22.5417 19.9459L33.5082 28.6486ZM24.3868 14.7273L24.1528 0.729257L24.3868 14.7273ZM35.758 23.8466L22.0526 20.9897L35.758 23.8466ZM22.0526 20.9897C22.1316 20.6111 22.298 20.2531 22.5417 19.9459L44.4746 37.3513C46.9594 34.2202 48.6576 30.5693 49.4634 26.7036L22.0526 20.9897ZM22.5417 19.9459C22.8925 19.5039 23.3825 19.1936 23.9321 19.0654L30.2929 46.3333C35.8984 45.0257 40.8966 41.8601 44.4746 37.3513L22.5417 19.9459ZM23.9321 19.0654C24.4816 18.9372 25.0584 18.9987 25.5685 19.2399L13.6008 44.5534C18.8045 47.0136 24.6875 47.6409 30.2929 46.3333L23.9321 19.0654ZM25.5685 19.2399C26.0787 19.4811 26.4923 19.8878 26.742 20.3938L1.63201 32.7829C4.17883 37.9448 8.39712 42.0932 13.6008 44.5534L25.5685 19.2399ZM26.742 20.3938C26.9916 20.8999 27.0628 21.4755 26.9438 22.0272L-0.426628 16.1229C-1.64037 21.7494 -0.914822 27.6211 1.63201 32.7829L26.742 20.3938ZM26.9438 22.0272C26.8248 22.5788 26.5227 23.0739 26.0866 23.432L8.31704 1.7931C3.86873 5.44597 0.78711 10.4964 -0.426628 16.1229L26.9438 22.0272ZM26.0866 23.432C25.6505 23.7902 25.106 23.9902 24.5418 23.9997L24.0738 -3.99644C18.3187 -3.90024 12.7654 -1.85978 8.31704 1.7931L26.0866 23.432ZM24.5418 23.9997C24.1497 24.0062 23.7643 23.9204 23.4159 23.7527L35.5593 -1.477C32.0011 -3.1896 28.0705 -4.06324 24.0738 -3.99644L24.5418 23.9997ZM30.7424 1.68647C28.6266 1.01984 26.4023 0.691657 24.1528 0.729257L24.6208 28.7253C23.8383 28.7384 23.0644 28.6242 22.3285 28.3924L30.7424 1.68647ZM24.1528 0.729257C19.4644 0.807623 14.9403 2.46989 11.3165 5.44572L29.086 27.0847C27.8254 28.1198 26.2517 28.6981 24.6208 28.7253L24.1528 0.729257ZM11.3165 5.44572C7.69268 8.42155 5.18223 12.5359 4.19345 17.1195L31.5639 23.0238C31.2199 24.6183 30.3466 26.0495 29.086 27.0847L11.3165 5.44572ZM4.19345 17.1195C3.20468 21.7032 3.79575 26.4866 5.87053 30.6917L30.9805 18.3026C31.7022 19.7654 31.9078 21.4293 31.5639 23.0238L4.19345 17.1195ZM5.87053 30.6917C7.94531 34.8968 11.3817 38.2763 15.6209 40.2805L27.5887 14.967C29.0633 15.6642 30.2587 16.8398 30.9805 18.3026L5.87053 30.6917ZM15.6209 40.2805C19.8601 42.2847 24.6527 42.7957 29.2192 41.7305L22.8584 14.4626C24.4469 14.092 26.114 14.2698 27.5887 14.967L15.6209 40.2805ZM29.2192 41.7305C33.7857 40.6653 37.8575 38.0864 40.7724 34.4133L18.8395 17.0079C19.8534 15.7302 21.2698 14.8331 22.8584 14.4626L29.2192 41.7305ZM40.7724 34.4133C42.1709 32.651 43.2638 30.6862 44.0221 28.6014L17.709 19.0297C17.9727 18.3046 18.353 17.6209 18.8395 17.0079L40.7724 34.4133ZM44.0221 28.6014C43.5741 29.8331 42.7535 31.2938 41.2832 32.6142C39.7319 34.0073 37.105 35.5 33.6368 35.5V7.5C23.9366 7.5 19.1479 15.0741 17.709 19.0297L44.0221 28.6014ZM18.9489 5.73084C21.0591 2.97847 23.842 1.80201 25.8915 1.41854C27.8338 1.0551 29.4924 1.29263 30.7424 1.68647L22.3285 28.3924C26.3431 29.6572 35.2676 30.4653 41.1696 22.7672L18.9489 5.73084ZM23.4159 23.7527C19.5393 21.8869 17.279 18.3164 16.6985 14.7935C16.1503 11.4666 17.0465 8.21209 18.9489 5.73084L41.1696 22.7672C46.0581 16.3912 46.5681 3.82169 35.5593 -1.477L23.4159 23.7527ZM49.4634 26.7036C51.9567 14.7431 41.6712 7.5 33.6368 7.5V35.5C30.5102 35.5 27.3821 34.231 25.0755 31.7718C22.6329 29.1676 21.1747 25.2014 22.0526 20.9897L49.4634 26.7036Z" fill="white" mask="url(#path-3-inside-1_635_7600)"/>
<path d="M13 21.8639H16.6213L19.3372 30.9171L15.4762 34.2265C14.5032 35.0605 13 34.3692 13 33.0876V21.8639Z" fill="white"/>
</svg>
