<svg width="72" height="72" viewBox="0 0 72 72" fill="none" xmlns="http://www.w3.org/2000/svg">
<circle cx="36" cy="36" r="36" fill="url(#paint0_linear_1_1469)"/>
<path d="M36 26C36.3315 26 36.6495 26.1317 36.8839 26.3661C37.1183 26.6005 37.25 26.9185 37.25 27.25V34.75H44.75C45.0815 34.75 45.3995 34.8817 45.6339 35.1161C45.8683 35.3505 46 35.6685 46 36C46 36.3315 45.8683 36.6495 45.6339 36.8839C45.3995 37.1183 45.0815 37.25 44.75 37.25H37.25V44.75C37.25 45.0815 37.1183 45.3995 36.8839 45.6339C36.6495 45.8683 36.3315 46 36 46C35.6685 46 35.3505 45.8683 35.1161 45.6339C34.8817 45.3995 34.75 45.0815 34.75 44.75V37.25H27.25C26.9185 37.25 26.6005 37.1183 26.3661 36.8839C26.1317 36.6495 26 36.3315 26 36C26 35.6685 26.1317 35.3505 26.3661 35.1161C26.6005 34.8817 26.9185 34.75 27.25 34.75H34.75V27.25C34.75 26.9185 34.8817 26.6005 35.1161 26.3661C35.3505 26.1317 35.6685 26 36 26Z" fill="white"/>
<defs>
<linearGradient id="paint0_linear_1_1469" x1="72" y1="23.25" x2="-0.251343" y2="23.8681" gradientUnits="userSpaceOnUse">
<stop stop-color="#476FFF"/>
<stop offset="1" stop-color="#31B0E6"/>
</linearGradient>
</defs>
</svg>
