<svg width="24" height="24" viewBox="0 0 24 24" fill="none" xmlns="http://www.w3.org/2000/svg">
<g clip-path="url(#clip0_635_7533)">
<path d="M20.25 12V16.5" stroke="#5567F1" stroke-width="1.5" stroke-linecap="round" stroke-linejoin="round"/>
<path d="M18 14.25H22.5" stroke="#5567F1" stroke-width="1.5" stroke-linecap="round" stroke-linejoin="round"/>
<path d="M7.5 3.75V8.25" stroke="#5567F1" stroke-width="1.5" stroke-linecap="round" stroke-linejoin="round"/>
<path d="M5.25 6H9.75" stroke="#5567F1" stroke-width="1.5" stroke-linecap="round" stroke-linejoin="round"/>
<path d="M15.75 17.25V20.25" stroke="#5567F1" stroke-width="1.5" stroke-linecap="round" stroke-linejoin="round"/>
<path d="M14.25 18.75H17.25" stroke="#5567F1" stroke-width="1.5" stroke-linecap="round" stroke-linejoin="round"/>
<path d="M13.5 7.5L16.5 10.5" stroke="#5567F1" stroke-width="1.5" stroke-linecap="round" stroke-linejoin="round"/>
<path d="M17.0301 3.96951L3.96942 17.0302C3.67652 17.3231 3.67652 17.798 3.96942 18.0909L5.90844 20.0299C6.20133 20.3228 6.6762 20.3228 6.9691 20.0299L20.0298 6.96919C20.3227 6.6763 20.3227 6.20143 20.0298 5.90853L18.0908 3.96951C17.7979 3.67662 17.323 3.67662 17.0301 3.96951Z" stroke="#5567F1" stroke-width="1.5" stroke-linecap="round" stroke-linejoin="round"/>
</g>
<defs>
<clipPath id="clip0_635_7533">
<rect width="24" height="24" fill="white"/>
</clipPath>
</defs>
</svg>
