<svg width="24" height="24" viewBox="0 0 24 24" fill="none" xmlns="http://www.w3.org/2000/svg">
<path d="M16.862 4.487L18.549 2.799C18.9007 2.44733 19.3777 2.24976 19.875 2.24976C20.3723 2.24976 20.8493 2.44733 21.201 2.799C21.5527 3.15068 21.7502 3.62766 21.7502 4.125C21.7502 4.62235 21.5527 5.09933 21.201 5.451L10.582 16.07C10.0533 16.5984 9.40137 16.9867 8.685 17.2L6 18L6.8 15.315C7.01328 14.5986 7.40163 13.9467 7.93 13.418L16.862 4.487ZM16.862 4.487L19.5 7.125M17.75 21H3.25C2.65326 21 2.08097 20.763 1.65901 20.341C1.23705 19.919 1 19.3467 1 18.75" stroke="#5567F1" stroke-width="1.5" stroke-linecap="round" stroke-linejoin="round"/>
</svg>
