<svg width="75" height="75" viewBox="0 0 75 75" fill="none" xmlns="http://www.w3.org/2000/svg">
<rect width="75" height="75" rx="28.6765" fill="#EFF0F2"/>
<path fill-rule="evenodd" clip-rule="evenodd" d="M18.3782 23.5732C25.5739 23.6736 32.5235 20.9557 37.7418 16.0001C42.6968 20.6947 49.3895 23.5709 56.7552 23.5709H57.1055C57.9997 26.2904 58.4836 29.1965 58.4836 32.2156C58.4836 45.1032 49.6707 55.9304 37.7418 59.0002C25.813 55.9281 17 45.1009 17 32.2133C16.9976 29.2784 17.4629 26.3618 18.3782 23.5732ZM47.2146 33.054C47.7695 32.2772 47.5895 31.1977 46.8127 30.6429C46.0359 30.088 44.9564 30.2679 44.4016 31.0447L36.9451 41.4838L33.2024 37.7411C32.5274 37.0661 31.433 37.0661 30.758 37.7411C30.083 38.4161 30.083 39.5105 30.758 40.1855L35.9434 45.371C36.3027 45.7303 36.8019 45.9133 37.3082 45.8714C37.8146 45.8295 38.2769 45.5669 38.5722 45.1534L47.2146 33.054Z" fill="#5567F1"/>
</svg>
