<svg width="24" height="24" viewBox="0 0 24 24" fill="none" xmlns="http://www.w3.org/2000/svg">
<path d="M9 10.25H7.5C6.90326 10.25 6.33097 10.4871 5.90901 10.909C5.48705 11.331 5.25 11.9033 5.25 12.5V18.5C5.25 19.0967 5.48705 19.669 5.90901 20.091C6.33097 20.5129 6.90326 20.75 7.5 20.75H16.5C17.0967 20.75 17.669 20.5129 18.091 20.091C18.5129 19.669 18.75 19.0967 18.75 18.5V12.5C18.75 11.9033 18.5129 11.331 18.091 10.909C17.669 10.4871 17.0967 10.25 16.5 10.25H15M15 5.25L12 2.25M12 2.25L9 5.25M12 2.25V15" stroke="#5567F1" stroke-width="1.5" stroke-linecap="round" stroke-linejoin="round"/>
</svg>
