<svg width="18" height="18" viewBox="0 0 18 18" fill="none" xmlns="http://www.w3.org/2000/svg">
<path d="M13.1667 9.83331L9.83337 17.3333C9.17033 17.3333 8.53445 17.0699 8.06561 16.6011C7.59677 16.1322 7.33337 15.4964 7.33337 14.8333V11.5H2.61671C2.37512 11.5027 2.13582 11.4529 1.9154 11.354C1.69497 11.255 1.4987 11.1094 1.34016 10.9271C1.18162 10.7447 1.06462 10.5301 0.997258 10.2981C0.929895 10.0661 0.913785 9.82218 0.950041 9.58331L2.10004 2.08331C2.16031 1.68589 2.36218 1.32364 2.66845 1.06331C2.97473 0.802976 3.36477 0.662103 3.76671 0.666647H13.1667M13.1667 9.83331V0.666647M13.1667 9.83331H15.6667C16.1087 9.83331 16.5327 9.65772 16.8452 9.34516C17.1578 9.0326 17.3334 8.60867 17.3334 8.16665V2.33331C17.3334 1.89129 17.1578 1.46736 16.8452 1.1548C16.5327 0.842242 16.1087 0.666647 15.6667 0.666647H13.1667" stroke="#383737" stroke-linecap="round" stroke-linejoin="round"/>
</svg>
