<svg width="18" height="18" viewBox="0 0 18 18" fill="none" xmlns="http://www.w3.org/2000/svg">
<path d="M4.83332 8.16663L8.16666 0.666626C8.8297 0.666626 9.46558 0.930018 9.93442 1.39886C10.4033 1.8677 10.6667 2.50358 10.6667 3.16663V6.49996H15.3833C15.6249 6.49722 15.8642 6.54705 16.0846 6.64597C16.3051 6.7449 16.5013 6.89057 16.6599 7.07289C16.8184 7.2552 16.9354 7.46981 17.0028 7.70184C17.0701 7.93386 17.0862 8.17776 17.05 8.41663L15.9 15.9166C15.8397 16.314 15.6379 16.6763 15.3316 16.9366C15.0253 17.197 14.6353 17.3378 14.2333 17.3333H4.83332M4.83332 8.16663V17.3333M4.83332 8.16663H2.33332C1.8913 8.16663 1.46737 8.34222 1.15481 8.65478C0.842251 8.96734 0.666656 9.39126 0.666656 9.83329V15.6666C0.666656 16.1087 0.842251 16.5326 1.15481 16.8451C1.46737 17.1577 1.8913 17.3333 2.33332 17.3333H4.83332" stroke="white" stroke-linecap="round" stroke-linejoin="round"/>
</svg>
