<svg width="18" height="18" viewBox="0 0 18 18" fill="none" xmlns="http://www.w3.org/2000/svg">
<path d="M13.1667 9.83337L9.83334 17.3334C9.1703 17.3334 8.53442 17.07 8.06558 16.6011C7.59674 16.1323 7.33334 15.4964 7.33334 14.8334V11.5H2.61668C2.37509 11.5028 2.13579 11.453 1.91537 11.354C1.69494 11.2551 1.49867 11.1094 1.34013 10.9271C1.18159 10.7448 1.06459 10.5302 0.997227 10.2982C0.929865 10.0661 0.913754 9.82224 0.950011 9.58337L2.10001 2.08338C2.16028 1.68595 2.36215 1.3237 2.66842 1.06337C2.9747 0.803037 3.36474 0.662164 3.76668 0.666708H13.1667M13.1667 9.83337V0.666708M13.1667 9.83337H15.6667C16.1087 9.83337 16.5326 9.65778 16.8452 9.34522C17.1577 9.03266 17.3333 8.60874 17.3333 8.16671V2.33337C17.3333 1.89135 17.1577 1.46742 16.8452 1.15486C16.5326 0.842303 16.1087 0.666708 15.6667 0.666708H13.1667" stroke="white" stroke-linecap="round" stroke-linejoin="round"/>
</svg>
